<?xml version="1.0" encoding="utf-8"?>
<!-- Generator: Adobe Illustrator 17.0.0, SVG Export Plug-In . SVG Version: 6.00 Build 0)  -->
<!DOCTYPE svg PUBLIC "-//W3C//DTD SVG 1.1//EN" "http://www.w3.org/Graphics/SVG/1.1/DTD/svg11.dtd">
<svg version="1.1" id="Capa_1" xmlns="http://www.w3.org/2000/svg" xmlns:xlink="http://www.w3.org/1999/xlink" x="0px" y="0px"
	 width="74px" height="28px" viewBox="5.583 -2.167 74 28" enable-background="new 5.583 -2.167 74 28" xml:space="preserve">
<g>
	<g>
		<g>
			<rect x="30.982" y="11.982" fill="#316599" width="1.151" height="5.469"/>
			<g>
				<path fill="#316599" d="M36.96,17.451h-1.09v-2.022c0-0.427-0.022-0.704-0.07-0.83c-0.046-0.125-0.122-0.223-0.226-0.292
					c-0.104-0.07-0.23-0.105-0.377-0.105c-0.187,0-0.356,0.049-0.506,0.15c-0.149,0.1-0.252,0.232-0.307,0.395
					c-0.056,0.164-0.083,0.468-0.083,0.91v1.793h-1.09v-3.963h1.009v0.581c0.359-0.446,0.811-0.669,1.357-0.669
					c0.24,0,0.459,0.041,0.658,0.125c0.2,0.083,0.35,0.19,0.452,0.319c0.102,0.129,0.173,0.275,0.214,0.44
					c0.04,0.165,0.061,0.4,0.061,0.705L36.96,17.451L36.96,17.451z"/>
				<path fill="#316599" d="M39.962,13.489v0.832h-0.744v1.604c0,0.326,0.007,0.514,0.022,0.569
					c0.014,0.053,0.046,0.098,0.095,0.133c0.049,0.035,0.109,0.053,0.181,0.053c0.099,0,0.243-0.034,0.43-0.102l0.097,0.815
					c-0.252,0.106-0.537,0.158-0.856,0.158c-0.195,0-0.371-0.033-0.528-0.096s-0.272-0.146-0.345-0.247
					c-0.073-0.102-0.124-0.237-0.152-0.41c-0.023-0.123-0.035-0.369-0.035-0.742V14.32h-0.499v-0.832h0.499v-0.783l1.09-0.616v1.399
					L39.962,13.489L39.962,13.489L39.962,13.489z"/>
				<path fill="#316599" d="M43.108,16.199l1.089,0.177c-0.139,0.383-0.359,0.674-0.662,0.873c-0.301,0.2-0.678,0.3-1.13,0.3
					c-0.716,0-1.246-0.226-1.59-0.677c-0.272-0.361-0.408-0.817-0.408-1.368c0-0.658,0.178-1.172,0.536-1.545
					c0.357-0.373,0.808-0.559,1.355-0.559c0.614,0,1.097,0.195,1.452,0.585c0.356,0.39,0.524,0.987,0.509,1.791h-2.73
					c0.007,0.313,0.095,0.555,0.263,0.728c0.167,0.174,0.375,0.26,0.625,0.26c0.169,0,0.312-0.044,0.428-0.134
					C42.962,16.543,43.049,16.398,43.108,16.199 M43.18,15.133c-0.007-0.304-0.089-0.534-0.245-0.693
					c-0.154-0.158-0.344-0.236-0.566-0.236c-0.238,0-0.434,0.083-0.59,0.25c-0.156,0.167-0.232,0.393-0.229,0.68L43.18,15.133
					L43.18,15.133z"/>
				<path fill="#316599" d="M46.185,17.451h-1.09v-3.963h1.009v0.563c0.174-0.266,0.331-0.441,0.471-0.525
					c0.139-0.084,0.298-0.126,0.475-0.126c0.25,0,0.492,0.065,0.724,0.197l-0.342,0.912c-0.185-0.114-0.356-0.171-0.515-0.171
					c-0.153,0-0.283,0.041-0.39,0.121c-0.107,0.08-0.19,0.227-0.252,0.438c-0.061,0.212-0.09,0.654-0.09,1.327L46.185,17.451
					L46.185,17.451z"/>
				<polygon fill="#316599" points="49.026,17.451 47.7,11.982 48.882,11.982 49.721,15.739 50.761,11.982 52.136,11.982 
					53.124,15.803 53.99,11.982 55.146,11.982 53.782,17.451 52.542,17.451 51.422,13.362 50.292,17.451 				"/>
				<path fill="#316599" d="M56.252,14.703l-0.977-0.177c0.111-0.382,0.303-0.665,0.576-0.85c0.273-0.183,0.677-0.275,1.216-0.275
					c0.488,0,0.852,0.056,1.091,0.166c0.24,0.111,0.408,0.251,0.505,0.42c0.098,0.171,0.148,0.484,0.148,0.939l-0.02,1.224
					c0,0.347,0.017,0.604,0.051,0.77c0.035,0.165,0.099,0.342,0.192,0.531h-1.08c-0.028-0.068-0.064-0.17-0.105-0.303
					c-0.018-0.061-0.03-0.101-0.037-0.12c-0.187,0.174-0.386,0.305-0.599,0.392c-0.213,0.086-0.439,0.131-0.68,0.131
					c-0.424,0-0.759-0.111-1.003-0.333c-0.244-0.222-0.366-0.502-0.366-0.842c0-0.224,0.056-0.424,0.167-0.6
					c0.111-0.177,0.267-0.311,0.469-0.404c0.201-0.094,0.49-0.176,0.869-0.245c0.512-0.092,0.865-0.178,1.062-0.258v-0.106
					c0-0.201-0.051-0.345-0.158-0.432c-0.105-0.086-0.303-0.129-0.593-0.129c-0.197,0-0.35,0.037-0.459,0.111
					C56.409,14.388,56.321,14.517,56.252,14.703 M57.73,15.553c-0.141,0.045-0.362,0.099-0.667,0.162
					c-0.303,0.063-0.502,0.124-0.595,0.184c-0.143,0.097-0.216,0.221-0.216,0.372c0,0.148,0.058,0.275,0.172,0.383
					c0.114,0.108,0.259,0.162,0.437,0.162c0.196,0,0.386-0.063,0.564-0.188c0.133-0.095,0.22-0.212,0.262-0.35
					c0.028-0.09,0.043-0.261,0.043-0.514L57.73,15.553L57.73,15.553z"/>
				<path fill="#316599" d="M60.908,17.451h-1.089v-3.963h1.008v0.563c0.175-0.266,0.332-0.441,0.471-0.525
					c0.14-0.084,0.298-0.126,0.476-0.126c0.25,0,0.492,0.065,0.723,0.197l-0.34,0.912c-0.186-0.114-0.357-0.171-0.515-0.171
					c-0.153,0-0.283,0.041-0.39,0.121c-0.106,0.08-0.19,0.227-0.251,0.438c-0.061,0.212-0.092,0.654-0.092,1.327L60.908,17.451
					L60.908,17.451z"/>
				<path fill="#316599" d="M65.346,16.199l1.09,0.177c-0.139,0.383-0.359,0.674-0.661,0.873c-0.302,0.2-0.679,0.3-1.131,0.3
					c-0.716,0-1.246-0.226-1.589-0.677c-0.272-0.361-0.408-0.817-0.408-1.368c0-0.658,0.178-1.172,0.535-1.545
					c0.357-0.373,0.809-0.559,1.356-0.559c0.613,0,1.097,0.195,1.452,0.585c0.354,0.39,0.524,0.987,0.508,1.791h-2.729
					c0.007,0.313,0.095,0.555,0.262,0.728c0.167,0.174,0.376,0.26,0.625,0.26c0.171,0,0.313-0.044,0.428-0.134
					C65.199,16.543,65.287,16.398,65.346,16.199 M65.418,15.133c-0.007-0.304-0.089-0.534-0.245-0.693
					c-0.155-0.158-0.345-0.236-0.567-0.236c-0.238,0-0.434,0.083-0.589,0.25c-0.156,0.167-0.232,0.393-0.23,0.68L65.418,15.133
					L65.418,15.133z"/>
				<path fill="#316599" d="M69.303,11.991c0.246,0,0.488,0.061,0.722,0.182c0.235,0.122,0.417,0.296,0.549,0.522
					c0.131,0.226,0.196,0.463,0.196,0.708c0,0.243-0.065,0.477-0.193,0.701c-0.129,0.224-0.311,0.398-0.543,0.522
					c-0.233,0.124-0.477,0.186-0.731,0.186c-0.255,0-0.498-0.061-0.731-0.186c-0.233-0.124-0.415-0.299-0.544-0.522
					c-0.129-0.225-0.194-0.459-0.194-0.701c0-0.245,0.065-0.482,0.197-0.708c0.132-0.226,0.316-0.4,0.551-0.522
					C68.817,12.052,69.057,11.991,69.303,11.991 M69.303,12.225c-0.206,0-0.407,0.051-0.602,0.152
					c-0.195,0.102-0.348,0.247-0.458,0.436c-0.11,0.19-0.165,0.385-0.165,0.59c0,0.203,0.054,0.398,0.162,0.584
					c0.109,0.186,0.26,0.332,0.455,0.436c0.195,0.104,0.398,0.156,0.609,0.156c0.211,0,0.415-0.053,0.61-0.156
					c0.194-0.104,0.345-0.249,0.453-0.436c0.108-0.186,0.162-0.381,0.162-0.584c0-0.205-0.055-0.4-0.164-0.59
					c-0.11-0.189-0.263-0.334-0.459-0.436C69.709,12.276,69.509,12.225,69.303,12.225 M68.658,14.186v-1.523h0.545
					c0.186,0,0.32,0.014,0.405,0.042c0.084,0.028,0.149,0.077,0.199,0.147c0.049,0.07,0.075,0.144,0.075,0.224
					c0,0.111-0.041,0.208-0.124,0.29c-0.083,0.083-0.193,0.129-0.33,0.139c0.056,0.022,0.101,0.049,0.135,0.081
					c0.063,0.06,0.143,0.16,0.234,0.302l0.194,0.299h-0.311l-0.143-0.24c-0.111-0.188-0.201-0.307-0.268-0.355
					c-0.047-0.034-0.116-0.053-0.206-0.052h-0.151v0.647L68.658,14.186L68.658,14.186z M68.912,13.329h0.314
					c0.15,0,0.253-0.021,0.308-0.064c0.055-0.042,0.083-0.1,0.083-0.17c0-0.045-0.013-0.086-0.04-0.122s-0.063-0.063-0.11-0.08
					c-0.048-0.018-0.133-0.027-0.26-0.027h-0.294L68.912,13.329L68.912,13.329z"/>
				<path fill="#316599" d="M23.729,6.726v3.591c0,1.828-0.061,3.199-0.183,4.114c-0.122,0.913-0.323,1.713-0.607,2.397
					c-0.284-0.673-0.488-1.486-0.609-2.439c-0.122-0.953-0.182-2.311-0.182-4.073V6.725h-3.04v3.591c0,1.846-0.061,3.226-0.186,4.14
					c-0.078,0.58-0.189,1.108-0.333,1.588c0.119,0.419,0.448,1.406,1.171,2.678c0.136-0.272,0.261-0.544,0.376-0.815
					c0.184-0.435,0.35-0.874,0.497-1.322c0.126,0.417,0.288,0.845,0.482,1.283c0.193,0.438,0.415,0.889,0.662,1.353h2.795
					c0.776-1.018,1.336-2.192,1.681-3.524c0.345-1.33,0.517-3.065,0.517-5.203V6.724h-3.039V6.726z"/>
				<path fill="#316599" d="M18.306,16.829c-0.153-0.382-0.481-1.457-0.601-2.354c-0.12-0.897-0.18-2.283-0.18-4.159V6.726h-3.04
					v3.769c0,2.139,0.172,3.873,0.513,5.203c0.342,1.332,0.899,2.506,1.67,3.524h2.825C18.897,18.223,18.46,17.209,18.306,16.829"/>
				<path fill="#C51C2F" d="M14.536,4.441c0,0.857,0.724,1.55,1.615,1.55s1.614-0.694,1.614-1.55c0-0.856-0.722-1.55-1.614-1.55
					C15.259,2.891,14.536,3.585,14.536,4.441"/>
			</g>
		</g>
	</g>
</g>
<rect id="_x3C_Slice_x3E_" x="304.648" y="-139.124" fill="none" width="126.001" height="100"/>
</svg>
